<mxfile host="app.diagrams.net">
  <diagram name="Page-1" id="hFg1gS8Z1jpz9yNm9I3k">
    <mxGraphModel dx="1004" dy="502" grid="1" gridSize="10" guides="1" tooltips="1" connect="1" arrows="1" fold="1" page="1" pageScale="1" pageWidth="827" pageHeight="1169" math="0" shadow="0">
      <root>
        <mxCell id="0" parent="1"/>
        <mxCell id="1" value="" style="group" vertex="1" parent="0">
          <mxGeometry x="0" y="0" width="800" height="600" as="geometry"/>
        </mxCell>
        <mxCell id="2" value="Insurance Quotation Service" style="rounded=1;whiteSpace=wrap;html=1;fillColor=#FFDDC1;" vertex="1" parent="1">
          <mxGeometry x="320" y="20" width="160" height="60" as="geometry"/>
        </mxCell>
        <mxCell id="3" value="REST APIs" style="rounded=1;whiteSpace=wrap;html=1;fillColor=#FFABAB;" vertex="1" parent="1">
          <mxGeometry x="320" y="100" width="160" height="60" as="geometry"/>
        </mxCell>
        <mxCell id="4" value="Inbound Messaging (AWS SQS)" style="rounded=1;whiteSpace=wrap;html=1;fillColor=#FFC3A0;" vertex="1" parent="1">
          <mxGeometry x="50" y="250" width="200" height="60" as="geometry"/>
        </mxCell>
        <mxCell id="5" value="Outbound Messaging (AWS SQS)" style="rounded=1;whiteSpace=wrap;html=1;fillColor=#FFC3A0;" vertex="1" parent="1">
          <mxGeometry x="550" y="250" width="200" height="60" as="geometry"/>
        </mxCell>
        <mxCell id="6" value="Database (MongoDB)" style="rounded=1;whiteSpace=wrap;html=1;fillColor=#FFABAB;" vertex="1" parent="1">
          <mxGeometry x="320" y="400" width="160" height="60" as="geometry"/>
        </mxCell>
        <mxCell id="7" value="Client Applications" style="rounded=1;whiteSpace=wrap;html=1;fillColor=#FFDDC1;" vertex="1" parent="1">
          <mxGeometry x="50" y="500" width="200" height="60" as="geometry"/>
        </mxCell>
        <mxCell id="8" value="Other Services" style="rounded=1;whiteSpace=wrap;html=1;fillColor=#FFDDC1;" vertex="1" parent="1">
          <mxGeometry x="550" y="500" width="200" height="60" as="geometry"/>
        </mxCell>
        <mxCell id="9" edge="1" parent="1" source="3" target="2">
          <mxGeometry relative="1" as="geometry"/>
        </mxCell>
        <mxCell id="10" edge="1" parent="1" source="4" target="2">
          <mxGeometry relative="1" as="geometry"/>
        </mxCell>
        <mxCell id="11" edge="1" parent="1" source="5" target="2">
          <mxGeometry relative="1" as="geometry"/>
        </mxCell>
        <mxCell id="12" edge="1" parent="1" source="6" target="2">
          <mxGeometry relative="1" as="geometry"/>
        </mxCell>
        <mxCell id="13" edge="1" parent="1" source="7" target="4">
          <mxGeometry relative="1" as="geometry"/>
        </mxCell>
        <mxCell id="14" edge="1" parent="1" source="8" target="5">
          <mxGeometry relative="1" as="geometry"/>
        </mxCell>
      </root>
    </mxGraphModel>
  </diagram>
</mxfile>